
<svg xmlns="http://www.w3.org/2000/svg" width="16" height="16" viewBox="0 0 40 40">
  <rect x="8" y="8" width="24" height="24" rx="3" ry="3" fill="#0a2148"/>
  <!-- Pins on top -->
  <rect x="10" y="3" width="2" height="5" fill="#0a2148"/>
  <rect x="14" y="3" width="2" height="5" fill="#0a2148"/>
  <rect x="18" y="3" width="2" height="5" fill="#0a2148"/>
  <rect x="22" y="3" width="2" height="5" fill="#0a2148"/>
  <rect x="26" y="3" width="2" height="5" fill="#0a2148"/>

  <!-- Pins on bottom -->
  <rect x="10" y="32" width="2" height="5" fill="#0a2148"/>
  <rect x="14" y="32" width="2" height="5" fill="#0a2148"/>
  <rect x="18" y="32" width="2" height="5" fill="#0a2148"/>
  <rect x="22" y="32" width="2" height="5" fill="#0a2148"/>
  <rect x="26" y="32" width="2" height="5" fill="#0a2148"/>

  <!-- Pins on left -->
  <rect x="3" y="10" width="5" height="2" fill="#0a2148"/>
  <rect x="3" y="14" width="5" height="2" fill="#0a2148"/>
  <rect x="3" y="18" width="5" height="2" fill="#0a2148"/>
  <rect x="3" y="22" width="5" height="2" fill="#0a2148"/>
  <rect x="3" y="26" width="5" height="2" fill="#0a2148"/>

  <!-- Pins on right -->
  <rect x="32" y="10" width="5" height="2" fill="#0a2148"/>
  <rect x="32" y="14" width="5" height="2" fill="#0a2148"/>
  <rect x="32" y="18" width="5" height="2" fill="#0a2148"/>
  <rect x="32" y="22" width="5" height="2" fill="#0a2148"/>
  <rect x="32" y="26" width="5" height="2" fill="#0a2148"/>

  <text x="20" y="26" font-family="Arial" font-size="10" fill="white" text-anchor="middle">.DSC</text>
</svg>
