<svg xmlns="http://www.w3.org/2000/svg" width="16" height="16" viewBox="0 0 16 16">
  <path fill="#CCCDD6" d="M12.44,1H3.56A2.56,2.56,0,0,0,1,3.56v8.88A2.56,2.56,0,0,0,3.56,15h8.88A2.56,2.56,0,0,0,15,12.44V3.56A2.56,2.56,0,0,0,12.44,1Z"/>
  <path fill="#548AF7" d="M3,5V3.5A1.5,1.5,0,0,1,4.5,2H5v.5Z"/>
  <rect width="10" height="4" x="3" y="6" fill="#6E6E6E"/>
  <path fill="#231F20" d="M4.5,14a1.5,1.5,0,0,1-1.45-1.28L3,12.5v-2h2v2a.5.5,0,0,0,.8,0L6.1,12a.66.66,0,0,1,1-.09L8,12.6l.87-.69a.66.66,0,0,1,1,.09l.34.5a.5.5,0,0,0,.8,0v-2h2v2a1.5,1.5,0,0,1-1.5,1.5Z"/>
  <g fill="#FFF">
    <path d="M4.8,9.2h.5V7.4H4.8v1.1l-.9-.9V6.52l1.6-.54h.4V9.2Z"/>
    <path d="M7.7,6h.4l.65,1.9h.03L9.36,6h.43v3.2H9.33V7.1H9.3l-.62,2.1H8.35L7.73,7.1h-.03v2.1H7.28Z"/>
    <path d="M11,6h.53v3.2H11Z"/>
  </g>
</svg>
